# xmcd
#
# Track frame offsets: 
#        150
#        26828
#        40760
#        57936
#        73127
#        96494
#        110211
#        128638
#        143486
#        157560
#
# Disc length: 2291 seconds
#
# Revision: 0
# Processed by: cddbd v1.5.2PL0 Copyright (c) Steve Scherf et al.
# Submitted via: ExactAudioCopy v0.99pb4
#
DISCID=8608f10a
DTITLE=Deadstring Brothers - SaO Paulo
DYEAR=2009
DGENRE=
TTITLE0=Sao Paulo
TTITLE1=Smile
TTITLE2=Houston
TTITLE3=Can't Make it Through The Night
TTITLE4=Adalee
TTITLE5=The River Song
TTITLE6=It's A Shame
TTITLE7=The Same Old Rule
TTITLE8=Yesterday's Style
TTITLE9=Always A Friend of Mine
EXTD=
EXTT0=
EXTT1=
EXTT2=
EXTT3=
EXTT4=
EXTT5=
EXTT6=
EXTT7=
EXTT8=
EXTT9=
PLAYORDER=
